<svg id="arrow-down-circle" xmlns="http://www.w3.org/2000/svg" width="24" height="24" viewBox="0 0 24 24">
  <path id="Shape" d="M12,24A12,12,0,0,1,3.515,3.515,12,12,0,1,1,20.485,20.485,11.922,11.922,0,0,1,12,24ZM12,1.5a10.5,10.5,0,1,0,7.425,3.075A10.511,10.511,0,0,0,12,1.5Z" fill="#fff"/>
  <path id="Path" d="M5.273,0a.752.752,0,0,1,.753.75V9.438l3.232-3.22a.755.755,0,0,1,1.262.337.749.749,0,0,1-.2.725l-4.519,4.5a.755.755,0,0,1-1.066,0L.221,7.28A.75.75,0,0,1,.559,6.024a.756.756,0,0,1,.728.194L4.52,9.438V.75A.752.752,0,0,1,5.273,0Z" transform="translate(6.727 6)" fill="#fff"/>
</svg>
